<?xml version="1.0" encoding="UTF-8"?>
<svg width="512" height="512" viewBox="0 0 512 512" fill="none" xmlns="http://www.w3.org/2000/svg">
  <rect width="512" height="512" rx="100" fill="url(#gradient)"/>
  <path d="M384 128H128V384H384V128ZM176 336C165.2 336 156 326.8 156 316C156 305.2 165.2 296 176 296C186.8 296 196 305.2 196 316C196 326.8 186.8 336 176 336ZM176 216C165.2 216 156 206.8 156 196C156 185.2 165.2 176 176 176C186.8 176 196 185.2 196 196C196 206.8 186.8 216 176 216ZM256 276C245.2 276 236 266.8 236 256C236 245.2 245.2 236 256 236C266.8 236 276 245.2 276 256C276 266.8 266.8 276 256 276ZM336 336C325.2 336 316 326.8 316 316C316 305.2 325.2 296 336 296C346.8 296 356 305.2 356 316C356 326.8 346.8 336 336 336ZM336 216C325.2 216 316 206.8 316 196C316 185.2 325.2 176 336 176C346.8 176 356 185.2 356 196C356 206.8 346.8 216 336 216Z" fill="white"/>
  <defs>
    <linearGradient id="gradient" x1="0" y1="0" x2="512" y2="512" gradientUnits="userSpaceOnUse">
      <stop offset="0%" stop-color="#8B5CF6"/>
      <stop offset="100%" stop-color="#6366F1"/>
    </linearGradient>
  </defs>
</svg> 